<?xml version="1.0" encoding="UTF-8"?>
<svg xmlns="http://www.w3.org/2000/svg" viewBox="0 0 1091.2 1080">
  <defs>
    <style>
      .cls-1 {
        fill: #f6a346;
      }

      .cls-2 {
        fill: #f7b438;
      }

      .cls-3 {
        fill: #f8af3c;
      }

      .cls-4 {
        fill: #f6a73f;
      }

      .cls-5 {
        fill: #fbaa44;
      }

      .cls-6 {
        fill: #fafbfa;
      }

      .cls-7 {
        fill: #f6a344;
      }

      .cls-8 {
        fill: #fb9b47;
      }

      .cls-9 {
        fill: #f5b040;
      }

      .cls-10 {
        fill: #f7b13b;
      }

      .cls-11 {
        fill: #f9b239;
      }

      .cls-12 {
        fill: #f6b33a;
      }

      .cls-13 {
        fill: #f9af3f;
      }

      .cls-14 {
        fill: #f9b03f;
      }

      .cls-15 {
        fill: #fdfdfd;
      }

      .cls-16 {
        fill: #f3b43a;
      }

      .cls-17 {
        fill: #faa449;
      }

      .cls-18 {
        fill: #c52c23;
      }

      .cls-19 {
        fill: #f3d5d3;
      }

      .cls-20 {
        fill: #dd1c21;
        stroke: #f89e73;
        stroke-miterlimit: 10;
      }

      .cls-21 {
        fill: #f8af3d;
      }

      .cls-22 {
        fill: #f8b336;
      }

      .cls-23 {
        fill: #f5ae3b;
      }

      .cls-24 {
        fill: #f6b23d;
      }

      .cls-25 {
        fill: #f9a649;
      }

      .cls-26 {
        fill: #f7b13e;
      }

      .cls-27 {
        fill: #f7a741;
      }

      .cls-28 {
        fill: #f7b439;
      }

      .cls-29 {
        fill: #f7a347;
      }

      .cls-30 {
        fill: #f7a442;
      }

      .cls-31 {
        fill: #fbfcfb;
      }

      .cls-32 {
        fill: #f79e4e;
      }

      .cls-33 {
        fill: #f8b23a;
      }
    </style>
  </defs>
  <g id="Layer_3" data-name="Layer 3">
    <circle class="cls-20" cx="544.2" cy="541.29" r="534.14"/>
  </g>
  <g id="Layer_1" data-name="Layer 1">
    <g>
      <path class="cls-31" d="M157.61,709c0-6.01,.13-12.02-.05-18.02-.1-3.22,1.16-4.53,4.3-4.48,6.01,.09,12.01,.17,18.02,.07,3.25-.05,4.21,1.3,4.16,4.48-.16,10.36-.17,20.72,.01,31.07,.29,16.31,7.94,28.01,22.95,34.41,48.05,20.47,97.62,36.2,148.53,47.94,52.39,12.08,105.43,18.98,159.06,21.66,4.85,.24,6.48,1.12,4.65,6.25-1.6,4.49-1.58,9.57-.2,14.12,1.88,6.18-1.24,6.39-5.8,6.13-21.71-1.25-43.42-2.54-65.01-5.18-41.5-5.06-82.57-12.54-123.07-23.03-42.1-10.91-83.23-24.67-123.47-41.24-18.52-7.63-32.65-19.07-40.06-37.99-4.58-11.69-4.26-23.95-4.04-36.18Z"/>
      <path class="cls-6" d="M308.16,284.18c-14.95,3.83-29.58,8.71-44.19,13.65-19.4,6.57-38.42,14.12-57.35,21.91-13.02,5.36-22.47,18.76-22.59,32.88-.12,13.67-.19,27.35-.02,41.02,.05,3.73-.95,5.21-4.86,5.01-5.58-.28-11.19-.01-16.78-.08-1.98-.02-4.62,.39-4.56-2.75,.39-19.21-2.41-38.6,1.82-57.61,4.32-19.44,16.44-33.03,34.2-41.61,7.04-3.4,14.32-6.32,21.49-9.46,9.29-4.42,18.81-8.33,28.58-11.47,6.75-2.17,11.5-3.75,20.33-6.3,18.23-5.32,36.36-11,54.7-15.89,42.19-11.26,84.97-19.56,128.38-24.46,1.2-.14,2.43-.02,4.96-.02-5.37,8.66-9.47,17.04-11.86,26.13-.72,2.75-3.46,1.76-5.29,2.01-38.78,5.19-76.98,13.24-114.77,23.28"/>
      <path class="cls-11" d="M641.31,336.4c-6.43,8.93-14.88,12.57-26.12,12.45-42.08-.44-84.16-.18-126.24-.16-1.32,0-2.65,.06-3.97,.13-1.51,.08-3.02,.04-4.52-.12-6.45-.66-10.74-1.41-13.12-3.29-6-4.73-9.51-11.76-10.37-19.85-.43-4.08,1.16-5.28,4.74-5.24,1.45,.02,2.9-.01,4.35-.01,56.73,0,113.47-.03,170.2,.06,3.28,0,7.54-1.66,9.43,2.6,1.78,4.01-.47,7.54-2.62,10.86-.56,.87-1.03,1.8-1.75,2.56Z"/>
      <path class="cls-22" d="M445.69,311.5c-6.93-7.73-6.51-16.66-3.8-25.71,1.18-3.94,4.35-7.29,8.5-7.31,19.18-.12,38.62-3.29,57.42,2.41,14.36,4.35,27.14,12.05,38.36,22.14,.62,1.08,1.51,1.96,2.25,2.94,2.87,3.79,1.8,6.28-2.79,6.99-1.43,.22-3.02,.22-4.47,.22-28.74,.02-57.35,.02-86.09-.03-2.81,0-7.76-.55-8.25-.73-.4-.04-.95-.7-1.14-.93Z"/>
      <path class="cls-17" d="M972.71,649.19c-4.02,2.22-8.42,2.42-12.84,2.42-41.53-.01-75.75,.04-117.29,0,3.64,.08-3.31,.15-4.97-.03-7.93-.84-10.77-7.91-11.31-11.95,.24-6.09,2.34-14.86,6.59-20.36,.89-1.21,1.44-2.33,4.76-8.08,7.56-13.68,15.18-27.32,22.66-41.03,10.83-19.84,21.61-39.72,32.33-59.62,4.52-8.38,3.03-11.24-6.26-11.43-15.31-.31-30.63-.25-45.95-.4-9.82-.09-13.11-3.46-13.18-13.47-.05-7,0-14,.05-21,.02-3.04,.41-5.98,3.05-7.98,1.55-1.17,3.41-2.09,5.26-1.39,2.23,.85,.85,2.96,.87,4.48,.08,6.36-.04,12.73,0,19.09,.07,10.11,3.72,13.83,13.59,14.08,15.93,.41,31.89-.57,47.81,.83,3.74,.33,6.62,1.72,7.86,4.83,.76,3.5-.72,6.06-1.92,8.51-8.51,17.49-18.5,34.17-27.83,51.21-10.85,19.81-21.11,39.95-32.32,59.56-2.6,4.55-5.3,9.3-7.54,13.84-2.66,6.9-1.65,11.09,7.76,11.14,39.22,.2,78.45,.03,117.67,.12,3.52,0,7.06-.29,10.36,1.78,2.43,1.53,2.89,2.84,.76,4.84Z"/>
      <path class="cls-5" d="M507.79,463.51c.16-1.99,.34-2.73,.99-4.24,.27-.32,.48-1.77,3.63-1.89,2.99-.09,6.56-.42,6.96,1.47,.51,2.4,.41,4.66,.48,7.15,.21,2.72,.2,9.66,.2,12.1,.03,48.24,.03,96.47,0,144.71,0,2.44,.09,6.76,.05,9.64,.01,.83,.06,1.04,.18,1.86,2,6.32,7.01,6.5,17.49,7.49,3.09,.11,5.83,.15,8.71,.08,11.5,.13,14.27,.08,35.55,.13,12.09,.03,23.58,.22,35.25,.43,1.23,.02,2.41,.04,3.56,.12,4.79,.33,4.43,7.54-.37,7.47-.16,0-.32,0-.48,0-19.27,.04-38.55-.16-57.82-.22-12.64-.04-25.29,.03-37.93,.03-8.99,0-12.5-2.14-14.22-8.79-.56-2.18-.81-4.44-.87-6.69-.06-2.56-.25-4.28-.25-6.24-.01-52.29-1.27-103.52-1.25-155.81,0-2.24-.21-5.93,.15-8.79Z"/>
      <path class="cls-13" d="M353.8,642.61c1.92,1.28,1.57,4.16,.74,5.25-2.15,2.83-6.07,2.38-9.44,2.32-8.28-.13-16.57-.24-24.86-.3-9.62-.08-12.65-2.95-12.69-12.66-.11-24.24-.12-48.48-.16-72.72-.05-30.04-.09-60.08-.14-90.13,0-4.98-.14-9.97,2.77-14.38,1.68-3.54,5.32-3.16,8.15-3.36,3.21-.22,3.44,2.78,3.53,5.41,1.6,46.78,.76,93.58,.95,140.37,.04,8.91-.1,17.82,.05,26.72,.17,9.62,2.26,10.54,11.81,11.74,4.14,.52,17.51-.08,19.29,1.73Z"/>
      <path class="cls-10" d="M613.15,761.92c0,4.76-.09,9.52,.03,14.28,.08,3.16-1.24,4.49-4.41,4.44-8.44-.11-16.9,.36-25.3-.2-13.67-.91-25.04-11.18-28.42-24.86-3.52-14.25,1.85-27.99,14.13-36.14,10.94-7.27,26.86-6.79,37.38,.83,3.35,2.43,3.98,4.47,.69,7.27-1.41,1.2-2.82,2.47-3.99,3.89-2.04,2.48-3.74,2.89-6.74,.87-7.21-4.86-15.94-3.48-22.59,2.95-4.94,4.78-5.95,14.98-2.12,21.4,4.2,7.03,13.12,10.31,21.01,7.84,2.06-.65,4.38-1.28,4.11-3.8-.32-2.99-3.14-1.86-5.01-2.17-2.52-.42-6.44,1.24-7.19-1.83-.89-3.63-.09-7.74,.36-11.59,.2-1.69,2.14-1.72,3.59-1.73,6.62-.03,13.25,.06,19.87-.04,3.53-.06,4.75,1.63,4.67,4.94-.11,4.55-.03,9.11-.03,13.66h-.03Z"/>
      <path class="cls-26" d="M230.24,643.65c-.92,.79-1.72,1.97-2.78,2.31-35.98,11.28-71.18,10.69-102.39-12.33-32.27-23.81-42.81-57.43-37.26-96.57,2.61-18.4,8.65-35.24,21.8-48.94,3.81,.36,2.85,3.33,3.09,5.64-1.09,6.25-4.7,11.65-6.1,17.8-4.95,16.17-6.64,32.76-4.9,49.5,2.62,25.22,14.16,46.07,33.42,62.36,14.12,11.95,31.26,17.14,49.27,20.12,13.9,2.3,27.55-.37,41.31-1.07,1.77-.09,3.25-.08,4.56,1.18Z"/>
      <path class="cls-16" d="M635.74,747.35c0-8.9,.19-17.8-.08-26.7-.14-4.45,1.11-6.37,5.88-6.25,10.55,.26,21.11,.22,31.66,.02,3.9-.07,4.89,1.54,4.99,5.14,.27,9.92,.41,9.93-9.52,10-4.35,.03-8.7,.23-13.03-.02-4.02-.23-4.87,1.72-4.88,5.23,0,3.39,1.08,4.95,4.65,4.8,4.13-.17,8.29,.23,12.41-.03,4.18-.27,5.62,1.53,5.24,5.45-.16,1.64-.16,3.32-.05,4.96,.23,3.43-1.24,4.91-4.71,4.79-4.34-.15-8.69,.05-13.04-.03-4.25-.08-4.33,2.69-4.45,5.82-.14,3.38,1.02,4.97,4.58,4.89,5.79-.13,11.6,.23,17.38-.07,5.94-.31,5.52,3.51,5.33,7.34-.18,3.67,1.4,8.22-5.27,8.02-10.55-.32-21.11-.3-31.66-.09-4.54,.09-5.59-1.88-5.5-5.96,.21-9.1,.06-18.21,.06-27.32h.03Z"/>
      <path class="cls-33" d="M465.3,738.7c0,6.21,.22,12.43-.05,18.63-.57,13.15-11.6,23.24-25.12,23.24-12.97,0-24.2-10.23-24.62-23.08-.41-12.62-.06-25.26-.24-37.88-.11-7.21,5.15-4.7,8.78-5.15,4.09-.5,6.64,.39,6.51,5.51-.29,11.17-.14,22.36-.04,33.54,.06,7.02,4.14,11.61,10.05,11.65,5.71,.04,9.52-4.27,9.63-11.31,.16-10.56,.41-21.13,.04-31.67-.2-5.79,1.32-8.07,7.54-7.91,5.7,.15,8.36,1.42,7.77,7.67-.53,5.54-.11,11.17-.11,16.76h-.14Z"/>
      <path class="cls-21" d="M377.29,566.67c12.83,0,25.66-.15,38.48,.01,9.63,.13,12.97,3.43,13.15,13.26,.26,14.48,.29,28.97,.14,43.46-.22,20.97,4.52,20.97,19.21,20.54,4.13-.12,8.28,.05,12.41,.19,1.33,.05,2.32,.4,2.34,2.68,.02,2.67-.72,2.75-2.29,2.75-2.56,.24-4.56,.34-7.26,.34-8.9,0-17.79,.02-26.69,.02-8.97-2.89-10.15-10.52-9.69-18,.96-15.5,.03-30.93-.31-46.39-.22-10.03-3.15-12.77-13.11-13-8.86-.21-17.71-1.27-26.57-.08,.06-1.93,.12-3.85,.19-5.78Z"/>
      <path class="cls-23" d="M193.41,492.57c4.13-.07,6.97,.19,10.75,.58,12.96,1.34,23.01,5.52,30.66,15.82,6.92,9.3,19.68,12.37,27.64,13.12,2.63-.04,6.37-.49,9.4-1.12,1.27-.26,3.32-.62,3.44,1.45,.05,.9-1.34,1.89-2.1,2.83-.12,.15-.33,.28-.52,.33-.49,.4-20.53,1.55-30.76,1.58-7.28,.02-13.41-4.66-17.44-10.66-11.34-16.89-27.63-19.38-45.92-16.75-1.43,.21-9.52,2.58-10.94,2.84,1.69-4.17,17.42-9.32,20.3-9.53,.89-.07,3.53-.59,5.49-.48Z"/>
      <path class="cls-9" d="M539.15,853.99c3.21-6.11,.38-11.12-5.28-15.54-2.5-1.95-2.08-4.18,1.51-4.15,6.81,.06,11.28-2.63,13.41-9.37,1.12-3.54,3.68-4.38,5.05-.23,2.31,6.95,6.97,9.57,13.95,9.63,3.59,.03,3.89,2.3,1.2,4.16-5.88,4.07-7.44,9.22-5.5,15.98,.92,3.22-.8,5.34-3.81,2.84-5.65-4.7-10.79-3.71-16.32-.09-2.33,1.52-4.91,2.34-4.2-3.24Z"/>
      <path class="cls-14" d="M416.95,512.89c-.26-14.99,.42-30.17,.58-44.97,.55-6.6,3.07-9.49,11.6-10.52,1.11,16.5-.24,38.11,.04,54.62,2.14,1.48,1.36-1.63,.96,.29-4.33,1.52-8.75,1.11-13.17,.59Z"/>
      <path class="cls-19" d="M551.16,396.12c17.41,0,34.82-.08,52.23,.11,1.94,.02,5.8-1.9,5.72,2.23-.07,3.29-3.47,2.15-5.52,2.16-34.41,.08-68.81,.09-103.22,.1-1.65,0-3.33-.03-4.96-.27-1.22-.18-1.43-1.3-1.46-2.38-.04-1.3,.66-1.83,1.87-1.87,1.66-.04,3.31-.1,4.97-.1,16.79,0,33.58,0,50.36,0v.03Z"/>
      <path class="cls-4" d="M352.13,394.86c0-.83,0-1.65,0-2.48-.04-11.06,1.4-11.06,13.96-10.85,1.92,.03,3.08,1.1,3.13,3.11,.05,2.15-1.33,2.85-3.17,2.98-1.03,.08-2.07-.01-3.1,.1-1.53,.17-3.83-.58-4.04,1.72-.28,2.96,2.21,2.29,3.97,2.26,2.31-.04,4.15,.43,4.21,3.27,.06,2.97-2.07,3.08-4.2,3.34-3.06-.05-3.96-.42-3.69,2.02,.22,1.99,2.56,1.52,4.14,1.82,2.17,.41,5.76-1.15,5.73,2.76-.03,3.9-3.54,3.33-6.12,3.31-10.86-.08-10.86-.12-10.81-13.37Z"/>
      <path class="cls-30" d="M669.34,408.28c-1.45,0-2.89,.06-4.34-.02-1.81-.1-3.99,.21-4.29-2.42-.24-2.04-.41-4.14,1.64-5.6,2.87-2.03,5.78-4.03,7.91-6.89,.99-1.32,2.09-2.78,.56-4.4-1.38-1.47-2.61-.55-3.73,.47-1.9,1.74-4.25,2.55-5.87,.31-1.48-2.05,.6-3.88,2.02-5.3,3.63-3.61,7.64-3.9,11.62-.61,3.98,3.29,4.29,7.37,1.73,11.63-1.72,2.86-5.73,5.32,.7,7.9,2.05,.82,1.43,4.24-1.78,4.76-2.01,.33-4.12,.06-6.18,.06,0,.03,0,.06,0,.1Z"/>
      <path class="cls-28" d="M655.44,311.57c-2.15,2.18-5.06,1.58-7.69,1.58-64.51,.04-122.65-.84-187.16-.88-2.46,0-2.96,.07-5.43-.19,0-.29-8.35-.25-8.36-.54,27.52,.02,55.05,0,82.57,.12,4.46,.02,8.85-1.51,13.39-.21,1.61,.46,3.89,.69,5.1-1.22,1.34-2.1-.74-3.33-1.53-4.91-.32-.65-.18-1.53-.25-2.3,4.97,4.92,8.57,.61,12.44-1.85,1.4,8.64,8.74,6.88,14.08,7.37,9.05,.82,18.19,.23,27.3,.25,15.73,.03,31.46-.09,47.18,.08,2.97,.03,6.38-.69,8.35,2.69Z"/>
      <path class="cls-27" d="M763.03,401.17c2.52,1.05,6.32-.11,5.71,4.29-.54,3.88-3.56,2.68-5.8,2.82-2.47,.16-4.96,.02-7.45-.05-1.93-.05-3.87-.33-4.46-2.56-.59-2.19,0-4.09,2.04-5.36,3.2-1.98,5.88-4.58,8.23-7.48,.89-1.1,1.62-2.55,.33-3.93-1.34-1.44-2.54-.68-3.76,.32-1.84,1.5-4.29,2.97-5.86,.55-1.38-2.13,.69-4.31,2.38-5.82,3.37-3.01,7.07-3.25,10.69-.44,3.76,2.92,4.85,6.68,2.57,10.97-1.14,2.16-2.79,4.06-4.62,6.68Z"/>
      <path class="cls-32" d="M579.65,563.57c.15,2.96,2.36,3.04,4.45,3.02,12.21-.08,23.21-.34,35.42-.46,.82,.04,1.31,.35,1.65,.72,.63,.69,.74,1.72,.41,2.6-.5,1.29-1.51,1.96-2.69,2.06-11.4,1-28.63,.62-33.82,.64-3.98,.57-7.41,.04-6.48,5.35-.13,1.98-.25,3.97-.38,5.94-2.4-6.84-.85-13.39,1.43-19.89Z"/>
      <path class="cls-1" d="M413.15,397.12c-.9-3.12,2.19-7.96-3.8-10.52-2.06-.88-2.04-4.72,1.84-5.06,3.48-.31,7.04-.31,10.51,.04,3.46,.35,3.39,4.1,1.76,4.81-5.99,2.6-3.58,7.53-4.1,11.63-.21,1.62,.07,3.3,0,4.95-.08,2.15,.68,5-2.82,5.09-3.78,.09-3.28-2.92-3.38-5.34-.07-1.65-.01-3.3-.01-5.6Z"/>
      <path class="cls-7" d="M738.88,394.92c0,2.48,.14,4.96-.03,7.43-.16,2.25,.83,5.56-3.21,5.32-3.68-.22-2.97-3.29-3.08-5.66-.08-1.65-.07-3.31,.01-4.95,.12-2.26-.43-3.96-2.82-4.86-1.7-.64-3.99-1.75-2.4-3.99,2.18-3.05,3.94-7.19,8.82-6.67,3.36,.36,2.57,3.21,2.67,5.33,.12,2.68,.03,5.37,.04,8.05Z"/>
      <path class="cls-26" d="M111.11,494.88c-.39-2.28,.09-4.75-1.51-6.76,6.96-8.44,14.27-16.48,24.67-20.83-5.24,6.96-10.48,13.92-15.71,20.89-3.72,.86-2.76,6.92-7.45,6.71Z"/>
      <path class="cls-29" d="M391.31,391.96c-1.52-.75-4.36-1.03-3.36-3.46,.81-1.96,2.89-.05,4.41,.05h0c2.62,.16,4.29-2.95,2.55-4.92-1.39-1.58-3.56-2.29-6.37-2.31-3.9-.02-6.34,2.06-7.19,5.62-1.14,4.79,1.28,7.83,5.5,9.89,1.79,.87,5.46,1.09,3.89,4.18-1.36,2.67-3.48,.3-5.12-.81-1.44-.98-3.18-1.67-4.56-.34-1.75,1.68-.4,3.55,.58,5.03,3.01,4.54,8.59,4.72,14.2,.66,.59-.43,.99-1.09,1.15-1.8,1.52-6.81,.44-8.75-5.68-11.78Z"/>
      <path class="cls-1" d="M441.14,407.81c-1.88-.58-5.33,.87-5.12-2.5,.17-2.66,3.32-1.65,5.12-1.58,1.87,.08,5.3-1.37,5.11,2.17-.14,2.69-3.24,1.47-5.12,1.91Z"/>
      <path class="cls-18" d="M629.54,639.92c-2.09,.02-4.18,.04-6.27,.07"/>
      <path class="cls-8" d="M578.14,493.72c1.41,1.77,3.32,1.15,5.14,1.13,13.19-.08,26.38-.17,39.57-.14,1.66,0,4.3-.95,4.66,1.53,.29,2.01-2,2.91-3.78,3.47-1.36,.43-2.81,.8-4.22,.8-14.01,.03-28.02-.02-42.02-.05-.25-2.29-.83-4.62,.65-6.74Z"/>
      <path class="cls-2" d="M646.64,251.52c-9.34-21.74-27.4-34.73-48.86-42.9-30.43-11.58-61.14-11.66-91.67-.37-22.86,8.46-40.93,22.42-49.73,46.18-.4,.76-1.26,4.63-1.63,5.69-.1,.27-2.02,8.51-1.49,11.93,2.07,.02,5.82,.15,7.89,.17,7.82,.03,7.7-.08,11.53-.08,54.85,.08,109.7,.07,164.54,.03,2.48,0,4.97-.02,7.44-.38,1.95-.29,4.02-1.04,4.24-3.06,.62-5.88-.53-11.38-2.26-17.21Zm-161.33,.25c-1.34,.03-2.57-1.35-2.78-3.77-.29-3.37,4.61-8.03,8.73-8.37,1.87-.15,3.29,.06,3.13,2.55-.21,3.32-5.11,9.41-9.08,9.59Zm18.76-20.05c-2.89-.03-4-1.77-3.93-4.4,.09-3.11,5.93-7.66,9.46-7.56,1.92,.05,2.58,.95,2.25,2.75-.15,4.03-4.54,9.24-7.78,9.22Zm9.61,19.9c-2.58-.07-3.89-1.67-3.72-3.96,.38-5.03,4.53-6.45,8.4-7.81,1.97-.7,3.09,.51,3.1,2.6,.13,3.63-4.65,9.26-7.79,9.17Z"/>
      <path class="cls-28" d="M653.71,312.73c-27.54,.02-53.26-1.15-80.8-1.08-4.38,.01-8.58-1.78-13.19-.21-3.44,1.17-6.39,.06-3.66-4.68,1.02-1.77,1.72-3.72,2.56-5.59,16.91-14,35.22-24.35,58.23-23.29,9.06,.42,18.16,.04,27.24,.08,9.94,.05,13.24,.66,16.11,6.3,2.35,4.61,3.15,9.84,2.63,14.99-.49,4.85-3.01,10-9.11,13.48Z"/>
      <path class="cls-12" d="M390.78,743.13c-1.87-2.33-1.69-4.34-1.26-6.84,1.29-7.59-.67-14.25-7.44-18.29-9.57-5.71-19.87-4.72-30.13-1.91-1.1,1.41-1.03,3.08-1.03,4.72-.03,17.89-.03,35.79,0,53.68,0,1.65-.03,3.31,1.06,4.72,7.99,3.04,16.37,1.96,24.3,.83,19.46-2.75,26.69-21.71,14.5-36.91Zm-20.25-13.77c1.97,.11,3.83,.86,3.8,3.06-.03,2.08-1.7,3.05-3.58,3.17-2.45-.08-3.42-1.35-3.4-3.51,.02-2.09,1.3-2.83,3.18-2.73Zm1.24,36.09c-6.49,.04-5.14-6.2-5.14-8,.55-3.34,1.08-6.26,5.15-6.83,5.38-.75,9.87,3.27,9.9,7.33,.03,3.73-4.89,7.46-9.91,7.49Z"/>
      <path class="cls-3" d="M537.16,776.69c-3.01-4.94-5.76-10.06-9.03-14.82-2.21-3.22-2.12-5.32,.39-8.56,8.95-11.58,6.07-25.55-6.07-33.85-7.98-5.45-16.8-4.88-25.69-4.98-4.4-.05-5.78,1.88-5.71,5.99,.15,8.9,.05,17.79,.05,26.69h.03c0,9.31-.03,18.62,.02,27.93,0,1.79-.54,4.3,1.58,4.94,4,1.21,8.38,1.29,12.2-.16,2.67-1.01,1.74-4.43,1.5-6.78-.36-3.51-2.14-7.36,2.14-8.6,4.1-1.19,4.83-.18,5.68,1.44,.19,.35,1.74,5.2,1.87,5.59,3.13,9.77,10.92,9.65,19.02,9.08,3.11-.22,3.53-1.46,2.02-3.93Zm-28.15-28.87c-2.86-2.74-2.86-5.91-3.04-8.81,0-4.33,.36-7,2.76-8.77,3.38-2.49,9.21,4.52,9.14,9.01-.07,4.24-5.93,11.36-8.86,8.56Z"/>
      <path class="cls-24" d="M747.97,775.38c-2.53-3.78-4.75-7.77-7.42-11.45-3.05-4.2-3.39-7.52,.19-12.06,6.09-7.73,5.73-17.34,.05-25.36-6.44-9.09-15.57-12.48-25.21-11.95-2.04,0-2.87,0-3.69,0q-9.31-.06-9.31,9.06c0,16.76,.3,33.53-.15,50.28-.18,6.55,3.03,6.8,7.95,6.86,4.87,.06,7.85-.55,7.51-6.62-.18-3.31-2.42-8.63,1.91-9.88,4.71-1.35,6.28,4.42,7.62,7.56,3.64,8.56,10.07,9.57,18.05,8.88,4.72-.41,4.68-2.05,2.5-5.32Zm-26.26-27.69c-2.51,.77-4.01-.06-4.01-2.87,0-2.26-.34-5.23-.41-7.46-.13-4.16-.18-5.62,2.78-6.95,3.91-1.76,9.31,4.41,9.21,9.93-.24,3.73-3.37,6.05-7.58,7.35Z"/>
      <path class="cls-10" d="M609.39,689.53c-2.47,.15-4.94,.44-7.42,.44-33.34,.03-66.68,.02-100.02,.01-1.66,0-3.32,.03-4.97-.07-1.18-.07-2.69,.05-2.88-1.62-.23-2.08,1.41-2.19,2.87-2.3,1.03-.08,2.07-.05,3.1-.05,34.38,0,68.75-.02,103.13,.04,2.59,0,6.27-1.36,6.17,3.55,0,0,0,0,0,0Z"/>
      <path class="cls-25" d="M702.15,381.54c-7.11,.07-12.9,5.9-12.97,13.07-.08,8.07,4.49,12.9,12.37,13.08,8.12,.19,13.68-4.87,13.85-12.61,.16-7.24-6.07-13.62-13.25-13.55Zm-.25,20.13c-3.98-.04-6.4-2.45-6.55-6.63,.15-4.54,2.68-7.09,6.92-7.11,4.31-.02,6.84,2.7,6.86,7.11,.02,4.7-3.14,6.68-7.24,6.63Z"/>
      <path class="cls-1" d="M438.79,381.79c-4.31,.92-3.4,5.22-3.69,8.81,.16,8.89,.42,9.41,4.31,9.4,5-.01,8.81-4.12,8.58-9.25-.21-4.79-4.47-9.96-9.2-8.95Zm2.04,13.25c-2.71,.09-1.23-2.43-1.72-3.76,.5-1.55-.87-4.25,1.97-4.26,1.84,0,2.36,2.16,2.43,3.82,.09,1.93-.43,4.13-2.68,4.2Z"/>
      <path class="cls-15" d="M377.53,570.2c-.28,1.42-.42,2.86-.42,4.3-.02,16.17-.11,32.34,.04,48.51,.04,4.23-.44,8.15-2.77,11.73-2.17,2.43-3.42,2.9-8.11,3.89-10.3,.75-19.4,1.04-29.12,.41-8.91-.58-12.38-3.78-12.62-12.63-1.52-55.94-1.39-111.89-1.49-167.84-.01-8.02,4.8-12.61,11.75-15.09,2.88-1.02,5.92-1.51,8.97-1.61,7.63-.24,13.24-.08,20.09,.37,9.18,.59,12.05,3.8,12.49,12.25,.68,13.25-.25,22.24,1.49,42.41,.16,1.84,.25,3.89,.75,5.72,2.07,7.45,4.41,9.32,12.41,9.22,8.28-.11,16.58,.67,24.82-.51,4.61-1.07,9.38-1.06,14.02-1.92,5.8-2.77,5.45-8.33,5.55-13.27,.27-13.81,.13-27.62,.07-41.43-.02-3.72,.63-6.95,4.35-8.73,12.52-4.21,25.38-3.29,38.14-2.09,6.33,.6,9.26,5.04,9.33,12.63,.16,16.99,.4,33.99,.08,50.98-.57,30.26-.08,60.51,.42,90.76,.17,10.57,.13,21.14-1.4,31.63-2.1,6.17-6.5,8.45-12.89,8.31-8.26-.19-16.48,1.36-24.8,.82-9.63-.62-14.38-5.1-14.64-14.84-.43-15.69,.02-31.39-.2-47.09-.01-.87-.05-1.75-.14-2.61-.96-9.69-3.78-12.38-13.38-12.48-10.16-.1-20.32-.23-30.47,.09-3.86,.12-7.49,.53-10.36,2.48-.47,.47-.95,.41-1.98,5.62Z"/>
      <path class="cls-15" d="M281.06,473.01c3.87,4.69,7.01,9.94,9.37,15.54,1.55,3.68,3.06,7.38,4.17,11.19,3.36,11.52-1.46,13.02-15.71,14.13-4.11,.32-7.41,.75-12.37,.53-10.79-.46-18.21-4.47-24.05-12.46-3.41-4.66-7.14-9.07-12.75-11.29-9.17-3.79-18.78-4.24-28.49-3.61-10.92,.71-16.26,3.33-24.98,8.97-1.69,1.09-3.83,2.48-5.33,3.89-2.06,1.48-7.34,8.28-8.07,11.69-5.24,16.12-5.09,32.49-2.26,48.99,2.9,15.75,20.58,31.12,38.77,33.69,19.76,2.8,35.4-3.92,46.17-20.76,4.87-7.6,11.29-10.92,20.13-10.57,6.81,.27,13.64-.06,20.46,.11,8.3,.21,11.46,4.51,9.52,12.66-.84,8.23-5.28,15.19-8.25,21.92-3.75,6.8-7.59,11.9-12.33,17.36-7.85,7.81-20.07,15.17-31.6,20.51-6.13,2.84-12.68,3.56-19.09,4.91-22.11,4.67-43.4,1.1-64.09-7.23-15.39-6.19-27.29-16.84-37.39-29.7-11.45-14.58-17.19-30.63-19.21-47.62-1.64-13.8-.55-27.79,2.75-41.28,2.26-9.2,4.76-18.32,9.64-26.66,4.79-8,10.38-17.4,18.19-22.75,13.79-11.54,28.9-18.31,46.74-22.2,26.92-5.87,52.51-3.18,76.63,10.67,1.42,.82,2.91,1.51,4.37,2.26,9.49,6.99,14.14,11.14,19.04,17.09Z"/>
      <path class="cls-15" d="M650.7,476.89c-.49,11.63-4.18,11.19-16.19,11.97s-23.94,1.28-35.92,1.02c-3.83-.08-7.59,.22-11.24,1.07-4.04,.94-7.01,4.26-7.79,8.34,0,.02,0,.05-.01,.07-.1,.49-.2,.98-.24,1.48-.29,3.52-.52,7.03,1.65,10.2,2.05,3.74,5.67,3.64,9.17,3.66,13.42,.08,26.84,.03,40.25,.18,9.43,.1,12.51,3.13,12.92,12.61,.22,5.15-.16,10.33,.14,15.47,.34,5.69-1.14,10.52-5.27,14.48-1.82,2.53-4.27,3.54-7.4,3.6-12.32,.25-24.62,1.38-36.96,.97-2.09-.07-4.18-.01-6.18,.41-3.22,.67-5.85,2.92-7.24,5.91-2.48,5.33-2.82,10.94-.57,16.91,2.18,5.24,6.78,6.17,11.61,6.21,15.32,.12,30.64,.13,45.96,.01,8.66-.07,15.88,3.75,14.65,14.36-.73,6.33-.1,12.82-.14,19.24-.05,9.01-2.37,11.52-11.49,12.78-1.86,.26-3.71,.3-5.57,.3-30.44,0-60.87-.08-91.31,.05-10.92,.05-16.27-5.89-16.2-16.18,.39-55.49,.18-110.98,.19-166.47,0-.98-.02-1.96-.02-2.93,0-4.85,3.36-9.15,8.12-10.06,1.01-.19,2.07-.28,3.18-.28,33.77-.06,67.53-.1,101.3,.04,6.41,.03,9.74,3.17,10.57,11.79"/>
      <path class="cls-15" d="M914.3,496.79c1.95-4.98-1.44-6.61-3.13-7.51-3.12-1.66-7.56-1.65-11.45-1.66-12.64-.01-25.28,.03-37.92-.02-9.44-.03-13.31-3.83-13.36-13.04-.03-6.42-.07-12.85,0-19.27,.1-8.67,4.34-13.05,12.87-13.06,41.44-.05,82.88-.03,124.32,0,2.03,0,4.2-.39,5.84,1.36,4.7,3.58,3.47,7.85,1.22,12.05-7.56,14.08-14.83,27.98-22.44,42.03-.38,.69-.78,1.64-1.24,2.38-5.23,10.24-11.42,22.86-17.32,34.68-6.4,10.83-12.82,22.11-19.39,34.02-2.99,5.21-4.07,7.73-6.31,11.94-2.62,4.95,.6,10.4,7.38,10.71,6.82,.31,13.67,.07,20.5,.08,9.94,0,19.89,.29,29.82-.07,11.29-.42,14.64,4.68,14.95,13.68,.24,6.96,2.1,14.04-.36,21.34-2.47,7.34-6.42,11.27-14.72,11.73-28.55,1.59-57.12,.7-85.67,.89-14.5,.09-29,.16-43.49-.08-4.89-.08-9.54-.88-12.34-5.64-1.12-5.15,.35-9.48,3.12-14,13.21-21.52,24.31-44.22,36.73-66.2"/>
      <path class="cls-17" d="M972.71,649.19c-4.02,2.22-8.42,2.42-12.84,2.42-41.53-.01-75.75,.04-117.29,0,3.64,.08-3.31,.15-4.97-.03-7.93-.84-10.77-7.91-11.31-11.95,.24-6.09,2.34-14.86,6.59-20.36,.89-1.21,1.44-2.33,4.76-8.08,7.56-13.68,15.18-27.32,22.66-41.03,10.83-19.84,21.61-39.72,32.33-59.62,4.52-8.38,3.03-11.24-6.26-11.43-15.31-.31-30.63-.25-45.95-.4-9.82-.09-13.11-3.46-13.18-13.47-.05-7,0-14,.05-21,.02-3.04,.41-5.98,3.05-7.98,1.55-1.17,3.41-2.09,5.26-1.39,2.23,.85,.85,2.96,.87,4.48,.08,6.36-.04,12.73,0,19.09,.07,10.11,3.72,13.83,13.59,14.08,15.93,.41,31.89-.57,47.81,.83,3.74,.33,6.62,1.72,7.86,4.83,.76,3.5-.72,6.06-1.92,8.51-8.51,17.49-18.5,34.17-27.83,51.21-10.85,19.81-21.11,39.95-32.32,59.56-2.6,4.55-5.3,9.3-7.54,13.84-2.66,6.9-1.65,11.09,7.76,11.14,39.22,.2,78.45,.03,117.67,.12,3.52,0,7.06-.29,10.36,1.78,2.43,1.53,2.89,2.84,.76,4.84Z"/>
      <path class="cls-15" d="M914.3,496.79c1.95-4.98-1.44-6.61-3.13-7.51-3.12-1.66-7.56-1.65-11.45-1.66-12.64-.01-25.28,.03-37.92-.02-9.44-.03-13.31-3.83-13.36-13.04-.03-6.42-.07-12.85,0-19.27,.1-8.67,4.34-13.05,12.87-13.06,41.44-.05,82.88-.03,124.32,0,2.03,0,4.2-.39,5.84,1.36,4.7,3.58,3.47,7.85,1.22,12.05-7.56,14.08-14.83,27.98-22.44,42.03-.38,.69-.78,1.64-1.24,2.38-5.23,10.24-11.42,22.86-17.32,34.68-6.4,10.83-12.82,22.11-19.39,34.02-2.99,5.21-4.07,7.73-6.31,11.94-2.62,4.95,.6,10.4,7.38,10.71,6.82,.31,13.67,.07,20.5,.08,9.94,0,19.89,.29,29.82-.07,11.29-.42,14.64,4.68,14.95,13.68,.24,6.96,2.1,14.04-.36,21.34-2.47,7.34-6.42,11.27-14.72,11.73-28.55,1.59-57.12,.7-85.67,.89-14.5,.09-29,.16-43.49-.08-4.89-.08-9.54-.88-12.34-5.64-1.12-5.15,.35-9.48,3.12-14,13.21-21.52,24.31-44.22,36.73-66.2"/>
      <path class="cls-6" d="M801.94,284.18c14.95,3.83,29.58,8.71,44.19,13.65,19.4,6.57,38.42,14.12,57.35,21.91,13.02,5.36,22.47,18.76,22.59,32.88,.12,13.67,.19,27.35,.02,41.02-.05,3.73,.95,5.21,4.86,5.01,5.58-.28,11.19-.01,16.78-.08,1.98-.02,4.62,.39,4.56-2.75-.39-19.21,2.41-38.6-1.82-57.61-4.32-19.44-16.44-33.03-34.2-41.61-7.04-3.4-14.32-6.32-21.49-9.46-9.29-4.42-18.81-8.33-28.58-11.47-6.75-2.17-11.5-3.75-20.33-6.3-18.23-5.32-36.36-11-54.7-15.89-42.19-11.26-84.97-19.56-128.38-24.46-1.2-.14-2.43-.02-4.96-.02,5.37,8.66,9.47,17.04,11.86,26.13,.72,2.75,3.46,1.76,5.29,2.01,38.78,5.19,76.98,13.24,114.77,23.28"/>
      <path class="cls-31" d="M945.96,709c0-6.01-.13-12.02,.05-18.02,.1-3.22-1.16-4.53-4.3-4.48-6.01,.09-12.01,.17-18.02,.07-3.25-.05-4.21,1.3-4.16,4.48,.16,10.36,.17,20.72-.01,31.07-.29,16.31-7.94,28.01-22.95,34.41-48.05,20.47-97.62,36.2-148.53,47.94-52.39,12.08-105.43,18.98-159.06,21.66-4.85,.24-6.48,1.12-4.65,6.25,1.6,4.49,1.58,9.57,.2,14.12-1.88,6.18,1.24,6.39,5.8,6.13,21.71-1.25,43.42-2.54,65.01-5.18,41.5-5.06,82.57-12.54,123.07-23.03,42.1-10.91,83.23-24.67,123.47-41.24,18.52-7.63,32.65-19.07,40.06-37.99,4.58-11.69,4.26-23.95,4.04-36.18Z"/>
      <path class="cls-17" d="M801.85,649.19c-4.02,2.22-8.42,2.42-12.84,2.42-41.53-.01-75.75,.04-117.29,0,3.64,.08-3.31,.15-4.97-.03-7.93-.84-10.77-7.91-11.31-11.95,.24-6.09,2.34-14.86,6.59-20.36,.89-1.21,1.44-2.33,4.76-8.08,7.56-13.68,15.18-27.32,22.66-41.03,10.83-19.84,21.61-39.72,32.33-59.62,4.52-8.38,3.03-11.24-6.26-11.43-15.31-.31-30.63-.25-45.95-.4-9.82-.09-13.11-3.46-13.18-13.47-.05-7,0-14,.05-21,.02-3.04,.41-5.98,3.05-7.98,1.55-1.17,4.04-2.95,5.26-1.39,.93,1.19,.85,2.96,.87,4.48,.08,6.36-.04,12.73,0,19.09,.07,10.11,3.72,13.83,13.59,14.08,15.93,.41,31.89-.57,47.81,.83,3.74,.33,6.62,1.72,7.86,4.83,.76,3.5-.72,6.06-1.92,8.51-8.51,17.49-18.5,34.17-27.83,51.21-10.85,19.81-21.11,39.95-32.32,59.56-2.6,4.55-5.3,9.3-7.54,13.84-2.66,6.9-1.65,11.09,7.76,11.14,39.22,.2,78.45,.03,117.67,.12,3.52,0,7.06-.29,10.36,1.78,2.43,1.53,2.89,2.84,.76,4.84Z"/>
      <path class="cls-15" d="M743.45,496.79c1.95-4.98-1.44-6.61-3.13-7.51-3.12-1.66-7.56-1.65-11.45-1.66-12.64-.01-25.28,.03-37.92-.02-9.44-.03-13.31-3.83-13.36-13.04-.03-6.42-.07-12.85,0-19.27,.1-8.67,4.34-13.05,12.87-13.06,41.44-.05,82.88-.03,124.32,0,2.03,0,4.2-.39,5.84,1.36,4.7,3.58,3.47,7.85,1.22,12.05-7.56,14.08-14.83,27.98-22.44,42.03-.38,.69-.78,1.64-1.24,2.38-5.23,10.24-11.42,22.86-17.32,34.68-6.4,10.83-12.82,22.11-19.39,34.02-2.99,5.21-4.07,7.73-6.31,11.94-2.62,4.95,.6,10.4,7.38,10.71,6.82,.31,13.67,.07,20.5,.08,9.94,0,19.89,.29,29.82-.07,11.29-.42,14.64,4.68,14.95,13.68,.24,6.96,2.1,14.04-.36,21.34-2.47,7.34-6.42,11.27-14.72,11.73-28.55,1.59-57.12,.7-85.67,.89-14.5,.09-29,.16-43.49-.08-4.89-.08-9.54-.88-12.34-5.64-1.12-5.15,.35-9.48,3.12-14,13.21-21.52,24.31-44.22,36.73-66.2"/>
    </g>
  </g>
</svg>